<svg width="64" height="64" viewBox="0 0 64 64" fill="none" xmlns="http://www.w3.org/2000/svg">
<path d="M18 20H16V22H18V20Z" fill="white"/>
<path d="M46 20H44V22H46V20Z" fill="white"/>
<path d="M9 41H7V43H9V41Z" fill="white"/>
<path d="M9 37H7V39H9V37Z" fill="white"/>
<path d="M9 33H7V35H9V33Z" fill="white"/>
<path d="M58 29.101V25V15C58 14.447 57.553 14 57 14H48.647C45.852 6.981 39.003 2 31 2C22.997 2 16.148 6.981 13.353 14H8C4.691 14 2 16.691 2 20V56C2 59.309 4.691 62 8 62H57C57.553 62 58 61.553 58 61V48.899C60.279 48.434 62 46.415 62 44V34C62 31.586 60.279 29.566 58 29.101ZM60 34C60 34.189 59.978 34.372 59.944 34.551C59.934 34.607 59.918 34.66 59.904 34.715C59.874 34.838 59.837 34.959 59.792 35.076C59.77 35.132 59.748 35.188 59.722 35.243C59.668 35.36 59.606 35.473 59.538 35.582C59.512 35.623 59.49 35.667 59.462 35.707C59.362 35.851 59.252 35.987 59.129 36.111C59.109 36.132 59.085 36.148 59.064 36.168C58.958 36.269 58.845 36.363 58.725 36.448C58.679 36.48 58.631 36.509 58.584 36.539C58.478 36.605 58.369 36.665 58.255 36.718C58.204 36.742 58.153 36.766 58.1 36.787C58.068 36.8 58.032 36.807 58 36.818V31.173C59.164 31.584 60 32.696 60 34ZM49.316 16H56V24H49.752C49.763 23.932 49.767 23.864 49.777 23.796C49.833 23.429 49.878 23.063 49.912 22.699C49.924 22.574 49.935 22.449 49.945 22.324C49.978 21.88 50 21.437 50 21C50 20.446 49.966 19.893 49.916 19.341C49.899 19.15 49.88 18.961 49.858 18.772C49.814 18.411 49.758 18.052 49.693 17.693C49.614 17.243 49.515 16.8 49.404 16.362C49.373 16.241 49.35 16.12 49.316 16ZM31 4C38.406 4 44.704 8.768 47.029 15.389C47.17 15.792 47.293 16.197 47.403 16.604C47.429 16.701 47.454 16.799 47.478 16.897C47.569 17.259 47.649 17.621 47.716 17.985C47.754 18.195 47.783 18.407 47.813 18.619C47.853 18.894 47.895 19.168 47.921 19.443C47.968 19.957 48 20.475 48 21C48 21.564 47.961 22.138 47.899 22.714C47.88 22.889 47.851 23.065 47.827 23.241C47.792 23.493 47.743 23.746 47.697 23.999H40.642C40.044 22.314 38.729 20.994 37.087 20.38C38.26 19.285 39 17.729 39 16C39 12.691 36.309 10 33 10V8H31V10H29V8H27V10H26C25.447 10 25 10.447 25 11V21V24H14.303C14.257 23.747 14.208 23.494 14.173 23.242C14.149 23.066 14.119 22.89 14.101 22.715C14.039 22.138 14 21.564 14 21C14 20.475 14.032 19.957 14.079 19.444C14.105 19.169 14.147 18.894 14.187 18.62C14.217 18.408 14.246 18.196 14.284 17.986C14.351 17.622 14.431 17.259 14.522 16.898C14.546 16.8 14.571 16.703 14.597 16.605C14.707 16.198 14.83 15.792 14.971 15.39C17.296 8.768 23.594 4 31 4ZM33 12C35.206 12 37 13.794 37 16C37 18.206 35.206 20 33 20H27V12H33ZM27 22H33H35C36.454 22 37.764 22.793 38.464 24H27V22ZM8 16H12.684C12.651 16.12 12.628 16.241 12.597 16.362C12.486 16.801 12.387 17.243 12.308 17.693C12.243 18.052 12.187 18.411 12.143 18.772C12.121 18.961 12.101 19.15 12.085 19.341C12.034 19.893 12 20.446 12 21C12 21.437 12.022 21.88 12.055 22.324C12.064 22.449 12.076 22.574 12.088 22.699C12.122 23.064 12.167 23.429 12.223 23.796C12.233 23.864 12.237 23.931 12.248 24H8C5.794 24 4 22.206 4 20C4 17.794 5.794 16 8 16ZM9 60V45H7V59.858C5.279 59.411 4 57.859 4 56V24.469C4.018 24.485 4.039 24.496 4.057 24.511C4.29 24.715 4.539 24.901 4.802 25.067C4.844 25.094 4.886 25.119 4.929 25.144C5.199 25.306 5.482 25.449 5.777 25.567C5.818 25.583 5.859 25.597 5.9 25.612C6.206 25.727 6.522 25.821 6.85 25.885C6.879 25.891 6.909 25.893 6.939 25.899C7.284 25.962 7.637 26 8 26H13.462H26H39.899H48.538H56V30V37H53V35C53 34.447 52.553 34 52 34H48C47.447 34 47 34.447 47 35V37H41C40.696 37 40.409 37.138 40.219 37.375L36.219 42.375C35.927 42.74 35.927 43.26 36.219 43.625L40.219 48.625C40.409 48.862 40.696 49 41 49H47V51C47 51.553 47.447 52 48 52H52C52.553 52 53 51.553 53 51V49H56V60H9ZM47 47H41.48L38.28 43L41.48 39H47V47ZM49 48V38V36H51V38V48V50H49V48ZM60 44C60 45.654 58.654 47 57 47H53V39H57C57.318 39 57.626 38.963 57.928 38.906C58.023 38.888 58.113 38.859 58.206 38.836C58.411 38.785 58.612 38.725 58.806 38.649C58.905 38.61 59 38.568 59.096 38.524C59.28 38.438 59.456 38.342 59.627 38.236C59.711 38.184 59.796 38.134 59.876 38.077C59.916 38.049 59.961 38.027 60.001 37.998V44H60Z" fill="white"/>
<path d="M54 56H52V58H54V56Z" fill="white"/>
</svg>
